<svg height="512" viewBox="0 0 128 128" width="512" xmlns="http://www.w3.org/2000/svg"><g><path d="m86.1 12.8a4.189 4.189 0 0 0 -6.3-4.455 4.191 4.191 0 1 0 -4.451 6.425l-3.207 14.9 5.866 1.263 3.207-14.9a4.192 4.192 0 0 0 4.885-3.233z" fill="#eaeaf0"/><path d="m85.682 53.73c-2.956 13.731-11.415 20.494-19.672 18.717s-13.185-11.423-10.23-25.153 12.675-26.348 20.933-24.571 11.924 17.277 8.969 31.007z" fill="#d78759"/><path d="m42.442 106.725c-33.2 0-41.469-22.6-18.36-36.475 27.057-16.25 25.378-29.421 48.858-33.267 31.848-4.264 44.083 10.8 44.083 26.2 0 21.017-7.377 41.858-38.415 43.545s-36.166-.003-36.166-.003z" fill="#f4a86c"/><path d="m114.831 15.721a4.189 4.189 0 0 0 -4.6-6.186 4.192 4.192 0 1 0 -6.231 4.728l-7.662 13.172 5.185 3.018 7.667-13.171a4.191 4.191 0 0 0 5.641-1.561z" fill="#eaeaf0"/><path d="m101.747 54.506c-7.065 12.138-17.2 15.947-24.5 11.7s-9-14.946-1.93-27.085 20.212-21.121 27.512-16.875 5.983 20.121-1.082 32.26z" fill="#d78759"/><path d="m12.922 110.667h102.155v10.833h-102.155z" fill="#d8d8d8"/><path d="m6.5 97.808h115a0 0 0 0 1 0 0v5.692a12 12 0 0 1 -12 12h-91a12 12 0 0 1 -12-12v-5.692a0 0 0 0 1 0 0z" fill="#eaeaf0"/><path d="m98.75 111.25h-8.125a1.75 1.75 0 0 1 0-3.5h8.125a1.75 1.75 0 0 1 0 3.5z" fill="#d8d8d8"/></g></svg>