<svg id="Capa_1" enable-background="new 0 0 512 512" height="512" viewBox="0 0 512 512" width="512" xmlns="http://www.w3.org/2000/svg"><g><g><path d="m483.231 271.802h-73.305l8.53-89.839c1.004-10.577 9.887-18.656 20.511-18.656h15.221c10.625 0 19.507 8.079 20.511 18.656z" fill="#1c96f9"/><path d="m483.227 271.798h-24.333l-8.53-89.832c-.855-9.024-7.438-16.225-15.947-18.152 1.463-.33 2.988-.505 4.553-.505h15.216c10.631 0 19.512 8.076 20.511 18.656z" fill="#1785f8"/></g><g><path d="m102.073 271.802h-73.304l8.53-89.839c1.004-10.577 9.887-18.656 20.511-18.656h15.221c10.625 0 19.507 8.079 20.511 18.656z" fill="#1c96f9"/><path d="m102.07 271.798h-24.333l-8.53-89.832c-.865-9.024-7.448-16.225-15.957-18.141 1.473-.34 2.998-.515 4.564-.515h15.216c10.631 0 19.512 8.076 20.511 18.656z" fill="#1785f8"/></g><g><path d="m231.664 258.576c0 64.879-38.501 96.87-85.995 96.87s-85.995-31.991-85.995-96.87 48.527-138.077 85.995-138.077 85.995 73.198 85.995 138.077z" fill="#fed597"/><path d="m231.667 258.581c0 64.87-38.508 96.868-85.999 96.868-5.275 0-10.436-.391-15.453-1.195 40.115-6.315 70.547-38.003 70.547-95.673 0-56.217-36.438-118.687-70.547-134.356 5.254-2.421 10.456-3.729 15.453-3.729 37.467-.001 85.999 73.204 85.999 138.085z" fill="#fcc16d"/></g><g><path d="m452.326 258.576c0 64.879-38.501 96.87-85.995 96.87s-85.995-31.991-85.995-96.87 48.527-138.077 85.995-138.077 85.995 73.198 85.995 138.077z" fill="#fed597"/><path d="m452.322 258.581c0 64.87-38.498 96.868-85.989 96.868-5.275 0-10.436-.391-15.453-1.195 40.115-6.315 70.537-38.003 70.537-95.673 0-56.217-36.427-118.687-70.537-134.356 5.254-2.421 10.456-3.729 15.453-3.729 37.467-.001 85.989 73.204 85.989 138.085z" fill="#fcc16d"/></g><path d="m250.475 263.727h-221.706c0 38.719 11.711 71.306 33.866 94.237 20.894 21.627 50.383 33.537 83.034 33.537s62.14-11.91 83.034-33.537c3.75-3.881 7.201-8.039 10.346-12.457 8.35-11.727 25.552-11.727 33.902 0 3.145 4.418 6.596 8.576 10.346 12.457 20.894 21.627 50.383 33.537 83.034 33.537s62.14-11.91 83.034-33.537c22.155-22.932 33.866-55.518 33.866-94.237z" fill="#7da2b0"/><path d="m28.769 263.727c0 13.975 1.534 27.146 4.526 39.358h384.174c12.851 0 21.446 13.384 15.939 24.995-5.315 11.208-12.184 21.232-20.542 29.881-16.916 17.513-39.466 28.66-64.778 32.265 5.944.845 12.033 1.277 18.244 1.277 32.646 0 62.141-11.909 83.033-33.543 22.159-22.932 33.862-55.516 33.862-94.231z" fill="#688d97"/><g><path d="m300.379 271.802h-88.758l8.53-89.839c1.004-10.577 9.887-18.656 20.511-18.656h30.674c10.625 0 19.507 8.079 20.511 18.656z" fill="#64b9fc"/><path d="m300.38 271.798h-24.333l-8.53-89.832c-1.01-10.58-9.89-18.656-20.521-18.656h24.343c10.621 0 19.501 8.076 20.511 18.656z" fill="#31a7fb"/></g><g><path d="m501.698 278.957h-491.396c-5.69 0-10.302-4.612-10.302-10.302v-15.23c0-5.69 4.612-10.302 10.302-10.302h491.396c5.69 0 10.302 4.612 10.302 10.302v15.23c0 5.69-4.612 10.302-10.302 10.302z" fill="#a9d3d8"/><path d="m512 253.43v15.226c0 5.687-4.615 10.302-10.302 10.302h-31.163c5.697 0 10.302-4.615 10.302-10.302v-15.226c0-5.697-4.605-10.302-10.302-10.302h31.163c5.687 0 10.302 4.605 10.302 10.302z" fill="#90bac4"/></g></g></svg>