<svg id="Capa_1" enable-background="new 0 0 496.368 496.368" height="512" viewBox="0 0 496.368 496.368" width="512" xmlns="http://www.w3.org/2000/svg"><g><g><g><path d="m94.248 94.677s36.848-91.451 75.82-94.616c21.094-1.714 62.689 33.894 118.476 18.901 21.388-5.748 89.359-36.676 107.199 75.715 0 0-64.58 28.544-150.479 28.544s-151.016-28.544-151.016-28.544z" fill="#ebe1dc"/></g></g><g><g><path d="m312.827 12.365c4.977 1.206 9.937 3.164 14.738 6.12 38.583 23.754 28.254 82.762-15.832 93.22-22.246 5.277-50.172 10.031-81.473 11.225 4.923.188 9.925.29 15.003.29 85.899 0 150.479-28.544 150.479-28.544-13.224-83.313-53.992-87.87-82.915-82.311z" fill="#dcd2cd"/></g></g><g><g><path d="m464.058 481.934c-3.394-13.512-10.49-32.479-25.11-47.098-.494-.494-.998-.96-1.496-1.442 13.828-117.386 5.283-196.437-25.32-310.815l-9.198-34.376c-99.471 38.6-209.777 38.632-309.27.089l-.231-.09-9.198 34.376c-30.603 114.378-39.148 193.429-25.32 310.815-.498.481-1.002.948-1.496 1.442-14.62 14.62-21.717 33.586-25.11 47.098-2.138 8.512 5.532 16.209 14.045 14.072 13.439-3.373 32.278-10.417 46.873-24.88 102.833 13.961 207.08 13.961 309.913 0 14.595 14.464 33.435 21.508 46.874 24.881 8.512 2.137 16.182-5.56 14.044-14.072z" fill="#f5deb2"/></g></g><g><g><path d="m464.058 481.934c-3.394-13.512-10.49-32.479-25.11-47.098-.494-.494-.998-.96-1.496-1.442 13.828-117.386 5.283-196.437-25.32-310.815l-9.198-34.376c-9.06 3.516-18.213 6.703-27.437 9.579l6.635 24.797c29.686 110.952 38.602 188.687 26.487 300.395-.289 2.661-.116 5.358.524 7.957.008.031.016.063.023.095.823 3.342 2.379 6.464 4.583 9.108 11.409 13.689 17.312 29.868 20.309 41.801.771 3.068.262 6.028-1.096 8.462 6.109 2.53 11.967 4.335 17.052 5.611 8.512 2.135 16.182-5.562 14.044-14.074z" fill="#f3d69e"/></g></g><g><g><path d="m408.418 70.669c-14.192 7.287-33.407 13.159-53.604 17.829-70.215 16.235-143.312 16.235-213.527 0-20.197-4.67-39.412-10.542-53.604-17.829-4.47-2.295-9.928-1.084-12.921 2.951-7.373 9.94-19.366 29.587-20.661 53.583-.141 2.605 1.341 5.024 3.695 6.146 15.446 7.364 78.001 33.404 190.254 33.404s174.808-26.04 190.254-33.404c2.355-1.123 3.836-3.542 3.696-6.146-1.295-23.997-13.288-43.643-20.661-53.583-2.993-4.035-8.451-5.246-12.921-2.951z" fill="#f3d69e"/></g></g><g><g><path d="m421.34 73.621c-2.993-4.036-8.451-5.247-12.921-2.952-4.424 2.272-9.337 4.406-14.615 6.409 7.316 10.669 17.039 28.653 18.198 50.126.141 2.605-1.341 5.024-3.695 6.146-14.744 7.03-72.414 31.074-175.254 33.246 4.898.103 9.896.159 15 .159 112.253 0 174.808-26.04 190.254-33.405 2.354-1.122 3.836-3.542 3.695-6.146-1.297-23.997-13.289-43.643-20.662-53.583z" fill="#efcb83"/></g></g><g><g><path d="m262.763 340.289c-12.346 8.249-16.518 25.17-17.905 34.458-.565 3.78 1.84 7.379 5.548 8.304 9.112 2.274 26.341 4.898 38.687-3.35 12.346-8.249 16.518-25.17 17.905-34.458.565-3.78-1.84-7.379-5.548-8.304-9.111-2.274-26.341-4.898-38.687 3.35z" fill="#efcb83"/></g></g><g><g><path d="m229.604 340.289c12.346 8.249 16.518 25.17 17.905 34.458.565 3.78-1.84 7.379-5.548 8.304-9.112 2.274-26.341 4.898-38.687-3.35-12.346-8.249-16.518-25.17-17.905-34.458-.565-3.78 1.84-7.379 5.548-8.304 9.112-2.274 26.341-4.898 38.687 3.35z" fill="#efcb83"/></g></g><g><g><path d="m262.763 245.42c-12.346 8.248-16.518 25.17-17.905 34.458-.565 3.78 1.84 7.379 5.548 8.304 9.112 2.274 26.341 4.898 38.687-3.35s16.518-25.17 17.905-34.458c.565-3.78-1.84-7.379-5.548-8.304-9.111-2.275-26.341-4.899-38.687 3.35z" fill="#efcb83"/></g></g><g><g><path d="m229.604 245.42c12.346 8.248 16.518 25.17 17.905 34.458.565 3.78-1.84 7.379-5.548 8.304-9.112 2.274-26.341 4.898-38.687-3.35s-16.518-25.17-17.905-34.458c-.565-3.78 1.84-7.379 5.548-8.304 9.112-2.275 26.341-4.899 38.687 3.35z" fill="#efcb83"/></g></g><g><g><path d="m262.763 293.083c-12.346 8.248-16.518 25.17-17.905 34.458-.565 3.78 1.84 7.379 5.548 8.304 9.112 2.274 26.341 4.898 38.687-3.351s16.518-25.17 17.905-34.458c.565-3.78-1.84-7.379-5.548-8.304-9.111-2.273-26.341-4.897-38.687 3.351z" fill="#f3d69e"/></g></g><g><g><path d="m229.604 293.083c12.346 8.248 16.518 25.17 17.905 34.458.565 3.78-1.84 7.379-5.548 8.304-9.112 2.274-26.341 4.898-38.687-3.351s-16.518-25.17-17.905-34.458c-.565-3.78 1.84-7.379 5.548-8.304 9.112-2.273 26.341-4.897 38.687 3.351z" fill="#f3d69e"/></g></g></g></svg>