<svg height="512pt" viewBox="-107 0 512 512" width="512pt" xmlns="http://www.w3.org/2000/svg"><path d="m46.488281 29.359375h76.234375v60.78125h-76.234375zm0 0" fill="#8cf2ff"/><path d="m91.816406 29.359375h30.90625v60.78125h-30.90625zm0 0" fill="#6bdae8"/><path d="m207.203125 75.203125h-176.375c-17.027344 0-30.828125 13.835937-30.828125 30.90625v344.082031c0 34.132813 27.605469 61.808594 61.65625 61.808594h174.6875c34.050781 0 61.65625-27.675781 61.65625-61.8125v-283.957031c0-50.273438-40.652344-91.027344-90.796875-91.027344zm59.96875 147.386719c0 12.464844-10.082031 22.582031-22.523437 22.582031-16.566407 0-31.546876-6.726563-42.410157-17.605469-10.851562-10.890625-17.5625-25.917968-17.5625-42.527344v-56.347656c0-12.472656 10.085938-22.582031 22.523438-22.582031 33.121093 0 59.972656 26.917969 59.972656 60.121094zm0 0" fill="#bdf9ff"/><path d="m207.203125 75.203125h-30.828125c50.144531 0 90.796875 40.753906 90.796875 91.027344v283.957031c0 34.136719-27.605469 61.8125-61.65625 61.8125h30.828125c34.050781 0 61.65625-27.675781 61.65625-61.8125v-283.957031c0-50.273438-40.652344-91.027344-90.796875-91.027344zm0 0" fill="#8cf2ff"/><path d="m195.652344 109.300781c-6.050782-2.058593-12.53125-3.191406-19.277344-3.191406-12.441406 0-22.523438 10.109375-22.523438 22.582031v56.347656c0 16.609376 6.707032 31.640626 17.558594 42.527344 10.863282 10.878906 25.847656 17.605469 42.410156 17.605469 4.222657 0 8.171876-1.164063 11.546876-3.191406-8.800782-2.996094-16.691407-7.96875-23.128907-14.414063-10.847656-10.886718-17.558593-25.917968-17.558593-42.527344v-56.347656c0-8.242187 4.398437-15.445312 10.972656-19.390625zm0 0" fill="#8cf2ff"/><path d="m131.992188 44.296875h-94.773438c-2.277344 0-4.121094-1.84375-4.121094-4.121094v-36.054687c0-2.277344 1.84375-4.121094 4.121094-4.121094h94.773438c2.277343 0 4.121093 1.84375 4.121093 4.121094v36.054687c0 2.277344-1.84375 4.121094-4.121093 4.121094zm0 0" fill="#4c779f"/><path d="m131.992188 0h-30.902344c2.273437 0 4.121094 1.84375 4.121094 4.121094v36.054687c0 2.277344-1.847657 4.121094-4.121094 4.121094h30.902344c2.277343 0 4.121093-1.84375 4.121093-4.121094v-36.054687c0-2.277344-1.84375-4.121094-4.121093-4.121094zm0 0" fill="#3a5c7a"/><path d="m0 277.632812h298v171.011719h-298zm0 0" fill="#ffd659"/><path d="m267.171875 277.632812h30.828125v171.011719h-30.828125zm0 0" fill="#ffbd54"/><path d="m193.1875 364.167969c0-30.152344-19.785156-54.597657-44.1875-54.597657s-44.1875 24.445313-44.1875 54.597657c0 30.15625 19.785156 54.601562 44.1875 54.601562s44.1875-24.445312 44.1875-54.601562zm0 0" fill="#fe5555"/></svg>