<?xml version="1.0" encoding="iso-8859-1"?>
<!-- Generator: Adobe Illustrator 19.0.0, SVG Export Plug-In . SVG Version: 6.00 Build 0)  -->
<svg version="1.1" id="Layer_1" xmlns="http://www.w3.org/2000/svg" xmlns:xlink="http://www.w3.org/1999/xlink" x="0px" y="0px"
	 viewBox="0 0 512.005 512.005" style="enable-background:new 0 0 512.005 512.005;" xml:space="preserve">
<path style="fill:#FFC752;" d="M457.1,180.863l-121.177-39.525c-25.793-8.413-52.844-12.697-79.919-12.856
	c-28.646-0.168-57.318,4.283-84.553,13.347L54.517,180.746c-28.374,9.441-47.438,35.878-47.438,65.782v31.878
	c0,8.284,6.716,15,15,15H489.93c8.284,0,15-6.716,15-15v-31.631C504.93,216.682,485.709,190.194,457.1,180.863z"/>
<path style="fill:#FDE67C;" d="M256.005,128.482c-28.646-0.168-57.318,4.283-84.553,13.347L54.517,180.746
	c-28.374,9.441-47.438,35.878-47.438,65.782v31.878c0,8.284,6.716,15,15,15h233.926L256.005,128.482z"/>
<path style="fill:#9E6451;" d="M494.819,288.648c-2.742-4.383-7.547-7.045-12.717-7.045H29.908c-5.167,0-9.97,2.659-12.712,7.038
	c-2.743,4.378-3.039,9.86-0.784,14.509l34.892,71.925c2.509,5.17,7.75,8.453,13.496,8.453h382.318c5.74,0,10.978-3.276,13.489-8.438
	l34.985-71.925C497.852,298.514,497.56,293.03,494.819,288.648z"/>
<path style="fill:#B88163;" d="M256.005,281.603H29.908c-5.167,0-9.97,2.659-12.712,7.038c-2.743,4.378-3.039,9.86-0.784,14.509
	l34.892,71.925c2.509,5.17,7.75,8.453,13.496,8.453h191.206V281.603z"/>
<path style="fill:#9E6451;" d="M256.005,180.165c-8.284,0-15,6.716-15,15v22.014c0,8.284,6.716,15,15,15c8.284,0,15-6.716,15-15
	v-22.014C271.005,186.881,264.289,180.165,256.005,180.165z"/>
<path style="fill:#B88163;" d="M203.644,177.14l-14.547,15.566c-5.656,6.053-5.335,15.544,0.718,21.2
	c2.892,2.703,6.569,4.041,10.238,4.041c4.009,0,8.009-1.598,10.962-4.759l14.547-15.566c5.656-6.053,5.335-15.544-0.718-21.2
	C218.794,170.766,209.3,171.087,203.644,177.14z"/>
<path style="fill:#9E6451;" d="M322.913,192.707l-14.547-15.566c-5.655-6.054-15.148-6.375-21.2-0.718
	c-6.053,5.656-6.374,15.147-0.718,21.2l14.547,15.566c2.953,3.161,6.952,4.759,10.962,4.759c3.669,0,7.347-1.338,10.238-4.041
	C328.248,208.251,328.569,198.759,322.913,192.707z"/>
<path style="fill:#FF814D;" d="M511.855,290.375c-1.16-8.201-8.747-13.92-16.954-12.749c-9.5,1.348-22.365-1.646-29.961-14.08
	c-4.662-7.631-12.784-12.188-21.728-12.188s-17.065,4.557-21.729,12.188c-5.501,9.006-15.086,14.383-25.64,14.383
	c-10.553,0-20.138-5.377-25.64-14.384c-4.662-7.631-12.784-12.188-21.728-12.188s-17.065,4.557-21.729,12.188
	c-5.501,9.006-15.086,14.383-25.639,14.383c-10.436,0-19.925-5.258-25.454-14.083c-3.976-7.138-11.439-11.541-19.652-11.541
	c-8.213,0-15.677,4.403-19.652,11.541c-5.529,8.825-15.019,14.083-25.454,14.083c-10.553,0-20.138-5.377-25.64-14.384
	c-4.662-7.631-12.784-12.188-21.728-12.188c-8.944,0-17.065,4.557-21.729,12.188c-5.501,9.006-15.086,14.383-25.639,14.383
	c-10.554,0-20.139-5.377-25.641-14.384c-4.662-7.631-12.784-12.188-21.728-12.188s-17.065,4.557-21.729,12.188
	c-7.593,12.432-20.448,15.426-29.96,14.079c-8.209-1.169-15.794,4.547-16.954,12.749c-1.161,8.202,4.547,15.793,12.749,16.954
	c21.524,3.05,42.774-5.695,55.889-22.534c11.314,14.6,28.574,23.135,47.373,23.135c18.794,0,36.053-8.534,47.367-23.128
	c11.315,14.594,28.573,23.128,47.367,23.128c17.583,0,33.821-7.468,45.106-20.381c11.285,12.913,27.523,20.381,45.106,20.381
	c18.794,0,36.053-8.534,47.367-23.128c11.315,14.594,28.573,23.128,47.367,23.128c18.799,0,36.059-8.536,47.373-23.135
	c13.114,16.838,34.356,25.583,55.889,22.534C507.308,306.167,513.016,298.576,511.855,290.375z"/>
<path style="fill:#FF9F38;" d="M256.005,252.305c-8.213,0-15.677,4.403-19.652,11.541c-5.529,8.825-15.019,14.083-25.454,14.083
	c-10.553,0-20.138-5.377-25.64-14.384c-4.662-7.631-12.784-12.188-21.728-12.188c-8.944,0-17.065,4.557-21.729,12.188
	c-5.501,9.006-15.086,14.383-25.639,14.383c-10.554,0-20.139-5.377-25.641-14.384c-4.662-7.631-12.784-12.188-21.728-12.188
	s-17.065,4.557-21.729,12.188c-7.593,12.432-20.448,15.426-29.96,14.079c-8.209-1.169-15.794,4.547-16.954,12.749
	c-1.161,8.202,4.547,15.793,12.749,16.954c21.524,3.05,42.774-5.695,55.889-22.534c11.314,14.6,28.574,23.135,47.373,23.135
	c18.794,0,36.053-8.534,47.367-23.128c11.315,14.594,28.573,23.128,47.367,23.128c17.583,0,33.821-7.468,45.106-20.381v-35.241
	H256.005z"/>
<g>
</g>
<g>
</g>
<g>
</g>
<g>
</g>
<g>
</g>
<g>
</g>
<g>
</g>
<g>
</g>
<g>
</g>
<g>
</g>
<g>
</g>
<g>
</g>
<g>
</g>
<g>
</g>
<g>
</g>
</svg>
